<svg xmlns="http://www.w3.org/2000/svg" width="36" height="38" viewBox="0 0 36 38"><g><g><path fill="#339d48" d="M.008 8.774C1.25 8.148 2.49 7.518 3.736 6.896c2.662-1.332 5.328-2.658 7.99-3.987 1.88-.938 3.763-1.871 5.636-2.822.234-.12.393-.113.623.003 2.491 1.258 4.99 2.502 7.485 3.752 2.984 1.496 5.952 3.022 8.957 4.474.815.394 1.102.836 1.098 1.765-.047 9.183-.03 18.366-.03 27.55-11.718 0-23.436-.001-35.156.006-.274.001-.34-.05-.339-.33.009-9.512.008-19.021.008-28.533M1.65 22.818v12.778c0 .212-.033.39.3.389 3.299-.012 6.6-.009 9.9-.003.218 0 .28-.064.289-.28.032-.916.088-1.831.13-2.748.053-1.082.102-2.163.149-3.246.054-1.231.095-2.465.16-3.697.032-.597.02-1.194.056-1.792.031-.546-.003-1.111-.349-1.607-1.093-1.575-1.522-3.348-1.482-5.23.026-1.205.15-2.407.23-3.611l.231-3.533c.019-.267.116-.506.422-.494.298.013.448.225.448.525 0 .686-.005 1.369.049 2.057.097 1.23-.02 2.47.082 3.705.062.75.01 1.507.012 2.262 0 .216.06.44.304.452.275.013.292-.227.308-.442.05-.647.024-1.295.06-1.944.095-1.703.115-3.41.19-5.115.016-.39-.088-.787.058-1.173.071-.186.14-.37.386-.344.275.03.411.214.41.467-.005.369.028.733.047 1.1.064 1.172.013 2.346.08 3.518.047.855-.005 1.714.03 2.569.015.366.053.733.065 1.1.004.125.045.23.177.266.128.033.224-.02.3-.124.083-.114.064-.244.07-.37.023-.648.01-1.296.05-1.946.078-1.31.094-2.626.096-3.94.001-.714.08-1.423.09-2.136.004-.301.191-.491.487-.487.313.004.35.24.377.513.058.585.013 1.175.08 1.75.126 1.107.097 2.22.231 3.323.032.262-.007.52.035.79a7.52 7.52 0 0 1 .087 1.703c-.026.367-.051.744-.113 1.117-.2 1.193-.47 2.366-1.175 3.37-.434.617-.588 1.262-.556 1.983l.22 5.042c.058 1.312.11 2.624.169 3.936.036.813.084 1.626.115 2.438.006.19.055.273.265.272 2.097-.006 4.194-.006 6.29 0 .185.001.241-.058.251-.237.034-.582.1-1.162.128-1.744.083-1.706.094-3.414-.154-5.11-.282-1.935-.715-3.845-1.11-5.762-.204-.988-.399-1.98-.489-2.981-.137-1.517.074-3.02.33-4.517.371-2.176 1.107-4.194 2.53-5.93.165-.2.326-.386.61-.295.28.091.32.327.321.59.011 4.488.029 8.977-.062 13.464-.055 2.722-.067 5.445-.095 8.169-.006.69-.062 1.387.02 2.067.077.642.064 1.287.135 1.93.033.295.085.358.363.358 3.055-.008 6.11-.009 9.163 0 .275.001.379-.05.379-.353-.01-8.48-.008-16.96-.003-25.44 0-.221-.067-.336-.271-.439A6990.719 6990.719 0 0 1 18.024 1.94c-.23-.116-.402-.113-.634.004A3922.68 3922.68 0 0 1 2.073 9.585c-.33.163-.43.336-.43.687.013 4.182.008 8.364.008 12.546"/></g></g></svg>